<?xml version="1.0" encoding="utf-8"?>
<!-- Generator: Adobe Illustrator 27.5.0, SVG Export Plug-In . SVG Version: 6.00 Build 0)  -->
<svg version="1.1" id="Layer_1" xmlns="http://www.w3.org/2000/svg" xmlns:xlink="http://www.w3.org/1999/xlink" x="0px" y="0px"
	 viewBox="0 0 500 330" style="enable-background:new 0 0 500 330;" xml:space="preserve">
<g>
	<g>
		<path style="fill:#E7F4FA;" d="M175.502,273.805c0,0-67.236,12.056-93.869-2.026c-30.177-15.958-25.799-47.632,27.913-57.726
			c70.763-13.296-48.949-45.068,29.93-86.691c33.244-17.542,11.153-54.901,58.623-56.404c40.77-1.29,28.218,63.049,98.227,44.33
			c50.382-13.471,72.04-21.392,84.495-1.806c19.469,30.616-36.198,64.742-8.479,75.47c27.714,10.728,97.201,6.373,77.652,53.224
			C429.78,290.626,272.105,264.851,175.502,273.805z"/>
	</g>
	<g>
		<g>
			<path style="fill:#20997C;" d="M172.292,265.536c0,0-25.337-122.662-72.744-122.965c-47.407-0.303-13.669,81.308,54.473,128.61
				L172.292,265.536z"/>
			<g>
				<g>
					<g>
						<g>
							<g>
								<g>
									<g>
										<g>
											<path style="fill:#178369;" d="M172.46,273.567c-26.949-18.064-67.706-103.513-68.247-104.585l0.834-0.298
												c0.54,1.077,41.192,86.322,67.943,104.254L172.46,273.567z"/>
										</g>
									</g>
								</g>
							</g>
						</g>
					</g>
					<g>
						<g>
							<g>
								<g>
									<g>
										<g>
											<path style="fill:#178369;" d="M129.141,217.088c-2.813,0.385-6.433-0.85-10.8-3.69l0.522-0.637
												c4.983,3.234,8.859,4.293,11.515,3.139c4.386-1.911,4.131-9.274,4.133-9.345l0.914,0.007
												c0.011,0.325,0.262,7.943-4.612,10.062C130.295,216.854,129.739,217.006,129.141,217.088z"/>
										</g>
									</g>
								</g>
							</g>
						</g>
					</g>
					<g>
						<g>
							<g>
								<g>
									<g>
										<g>
											<path style="fill:#178369;" d="M115.631,192.415c-2.813,0.386-6.432-0.846-10.803-3.684l0.523-0.643
												c4.989,3.249,8.864,4.301,11.513,3.144c4.387-1.906,4.14-9.274,4.137-9.35l0.913,0.012
												c0.017,0.329,0.269,7.947-4.608,10.067C116.783,192.185,116.224,192.334,115.631,192.415z"/>
										</g>
									</g>
								</g>
							</g>
						</g>
					</g>
					<g>
						<g>
							<g>
								<g>
									<g>
										<g>
											<path style="fill:#178369;" d="M107.475,178.173c-2.813,0.386-6.436-0.86-10.801-3.694l0.518-0.642
												c4.984,3.244,8.866,4.296,11.516,3.144c4.387-1.912,4.137-9.279,4.132-9.349l0.914,0.017
												c0.014,0.318,0.269,7.931-4.608,10.057C108.625,177.934,108.072,178.091,107.475,178.173z"/>
										</g>
									</g>
								</g>
							</g>
						</g>
					</g>
					<g>
						<g>
							<g>
								<g>
									<g>
										<g>
											<path style="fill:#178369;" d="M123.112,205.888c-2.351,0.323-5.371-0.71-9.01-3.069l0.524-0.637
												c4.099,2.662,7.293,3.543,9.461,2.589c3.582-1.557,3.388-7.623,3.384-7.683l0.91,0.012
												c0.015,0.268,0.226,6.623-3.858,8.395C124.087,205.692,123.613,205.819,123.112,205.888z"/>
										</g>
									</g>
								</g>
							</g>
						</g>
					</g>
					<g>
						<g>
							<g>
								<g>
									<g>
										<g>
											<path style="fill:#178369;" d="M136.161,229.275c-2.813,0.385-6.435-0.856-10.799-3.691l0.519-0.646
												c4.981,3.25,8.855,4.298,11.511,3.144c4.385-1.905,4.141-9.275,4.134-9.35l0.917,0.016
												c0.017,0.324,0.267,7.936-4.606,10.062C137.314,229.04,136.754,229.193,136.161,229.275z"/>
										</g>
									</g>
								</g>
							</g>
						</g>
					</g>
					<g>
						<g>
							<g>
								<g>
									<g>
										<g>
											<path style="fill:#178369;" d="M143.166,243.796c-2.811,0.385-6.436-0.85-10.804-3.684l0.52-0.642
												c4.987,3.239,8.868,4.295,11.515,3.138c4.388-1.906,4.136-9.269,4.135-9.344l0.914,0.012
												c0.016,0.313,0.269,7.936-4.609,10.057C144.317,243.561,143.759,243.714,143.166,243.796z"/>
										</g>
									</g>
								</g>
							</g>
						</g>
					</g>
					<g>
						<g>
							<g>
								<g>
									<g>
										<g>
											<path style="fill:#178369;" d="M150.607,254.054c-2.034,0.279-4.643-0.611-7.778-2.652l0.525-0.638
												c3.491,2.278,6.202,3.017,8.035,2.226c3.046-1.325,2.868-6.492,2.868-6.542l0.917,0.017
												c0.011,0.228,0.191,5.71-3.341,7.248C151.451,253.873,151.039,253.995,150.607,254.054z"/>
										</g>
									</g>
								</g>
							</g>
						</g>
					</g>
				</g>
			</g>
		</g>
		<g>
			<g>
				<g>
					<path style="fill:#59B45A;" d="M158.222,275.568c-11.57-52.47-54.081-69.998-54.508-70.171l-0.829,1.966
						c0.418,0.168,41.887,17.313,53.204,68.652L158.222,275.568z"/>
				</g>
				<g>
					<path style="fill:#59B45A;" d="M107.527,208.42c0.416-0.076-6.175-10.152-10.721-7.893
						C92.262,202.785,100.019,209.796,107.527,208.42z"/>
				</g>
				<g>
					<path style="fill:#59B45A;" d="M115.016,212.637c0.371,0.198,1.839-11.664-3.146-12.726
						C106.886,198.848,108.316,209.061,115.016,212.637z"/>
				</g>
				<g>
					<path style="fill:#59B45A;" d="M124.846,220.037c0.315,0.276,4.549-10.937-0.05-13.09
						C120.198,204.795,119.173,215.053,124.846,220.037z"/>
				</g>
				<g>
					<path style="fill:#59B45A;" d="M133.76,228.281c0.314,0.276,4.548-10.937-0.05-13.09
						C129.11,213.038,128.086,223.298,133.76,228.281z"/>
				</g>
				<g>
					<path style="fill:#59B45A;" d="M140.776,237.629c0.244,0.337,6.918-9.687,2.921-12.777
						C139.7,221.763,136.373,231.548,140.776,237.629z"/>
				</g>
				<g>
					<path style="fill:#59B45A;" d="M147.493,247.824c0.244,0.337,6.917-9.688,2.921-12.777
						C146.417,231.958,143.09,241.743,147.493,247.824z"/>
				</g>
				<g>
					<path style="fill:#59B45A;" d="M151.564,257.069c0.16,0.382,8.975-7.927,5.793-11.812
						C154.175,241.373,148.676,250.18,151.564,257.069z"/>
				</g>
				<g>
					<path style="fill:#59B45A;" d="M116.845,213.647c0.315,0.276-10.702,5.532-13.373,1.298
						C100.801,210.711,111.173,208.663,116.845,213.647z"/>
				</g>
				<g>
					<path style="fill:#59B45A;" d="M127.094,222.573c0.331,0.257-10.338,6.153-13.268,2.083
						C110.897,220.587,121.123,217.932,127.094,222.573z"/>
				</g>
				<g>
					<path style="fill:#59B45A;" d="M135.221,230.414c0.314,0.276-10.701,5.533-13.373,1.299
						C119.177,227.478,129.549,225.43,135.221,230.414z"/>
				</g>
				<g>
					<path style="fill:#59B45A;" d="M143.411,241.287c0.275,0.313-11.337,4.16-13.434-0.371
						C127.88,236.385,138.436,235.64,143.411,241.287z"/>
				</g>
				<g>
					<path style="fill:#59B45A;" d="M149.083,251.383c0.252,0.331-11.612,3.369-13.374-1.295
						C133.947,245.424,144.529,245.408,149.083,251.383z"/>
				</g>
			</g>
		</g>
		<g>
			<path style="fill:#178369;" d="M151.785,264.873c0,0-37.6-55.998-61.199-46.974c-23.599,9.023,9.799,43.014,53.28,53.313
				L151.785,264.873z"/>
			<g>
				<g>
					<g>
						<g>
							<g>
								<g>
									<g>
										<g>
											<path style="fill:#116851;" d="M161.347,273.455c-19.915-4.381-62.653-44.309-63.222-44.808l0.412-0.361
												c0.57,0.503,43.198,40.335,62.967,44.685L161.347,273.455z"/>
										</g>
									</g>
								</g>
							</g>
						</g>
					</g>
					<g>
						<g>
							<g>
								<g>
									<g>
										<g>
											<path style="fill:#116851;" d="M124.021,250.891c-1.538,0.859-3.93,0.96-7.137,0.301l0.152-0.487
												c3.657,0.748,6.154,0.486,7.419-0.782c2.087-2.097,0.186-6.306,0.17-6.347l0.532-0.202
												c0.083,0.186,2.042,4.543-0.278,6.872C124.634,250.495,124.349,250.708,124.021,250.891z"/>
										</g>
									</g>
								</g>
							</g>
						</g>
					</g>
					<g>
						<g>
							<g>
								<g>
									<g>
										<g>
											<path style="fill:#116851;" d="M110.319,239.646c-1.538,0.859-3.928,0.963-7.136,0.306l0.15-0.491
												c3.664,0.755,6.16,0.49,7.419-0.779c2.088-2.095,0.192-6.309,0.172-6.352l0.532-0.199
												c0.088,0.187,2.048,4.544-0.274,6.874C110.932,239.252,110.644,239.465,110.319,239.646z"/>
										</g>
									</g>
								</g>
							</g>
						</g>
					</g>
					<g>
						<g>
							<g>
								<g>
									<g>
										<g>
											<path style="fill:#116851;" d="M102.204,233.235c-1.538,0.859-3.934,0.956-7.137,0.299l0.147-0.489
												c3.66,0.754,6.16,0.487,7.421-0.78c2.087-2.098,0.188-6.311,0.168-6.35l0.534-0.197c0.084,0.181,2.043,4.534-0.276,6.867
												C102.813,232.837,102.53,233.053,102.204,233.235z"/>
										</g>
									</g>
								</g>
							</g>
						</g>
					</g>
					<g>
						<g>
							<g>
								<g>
									<g>
										<g>
											<path style="fill:#116851;" d="M117.862,245.763c-1.285,0.718-3.282,0.801-5.952,0.256l0.152-0.487
												c3.01,0.617,5.069,0.406,6.098-0.636c1.705-1.711,0.149-5.181,0.133-5.216l0.53-0.198
												c0.073,0.152,1.708,3.786-0.236,5.736C118.38,245.429,118.136,245.61,117.862,245.763z"/>
										</g>
									</g>
								</g>
							</g>
						</g>
					</g>
					<g>
						<g>
							<g>
								<g>
									<g>
										<g>
											<path style="fill:#116851;" d="M130.99,256.366c-1.539,0.859-3.933,0.958-7.136,0.301l0.147-0.492
												c3.659,0.758,6.154,0.491,7.418-0.777c2.088-2.095,0.191-6.31,0.17-6.352l0.536-0.197
												c0.086,0.184,2.043,4.538-0.275,6.869C131.602,255.97,131.314,256.186,130.99,256.366z"/>
										</g>
									</g>
								</g>
							</g>
						</g>
					</g>
					<g>
						<g>
							<g>
								<g>
									<g>
										<g>
											<path style="fill:#116851;" d="M138.506,263.198c-1.537,0.858-3.932,0.962-7.137,0.305l0.148-0.489
												c3.661,0.751,6.162,0.486,7.419-0.783c2.088-2.095,0.191-6.304,0.172-6.348l0.532-0.199
												c0.084,0.177,2.045,4.537-0.277,6.867C139.116,262.803,138.829,263.018,138.506,263.198z"/>
										</g>
									</g>
								</g>
							</g>
						</g>
					</g>
					<g>
						<g>
							<g>
								<g>
									<g>
										<g>
											<path style="fill:#116851;" d="M145.258,267.462c-1.112,0.621-2.835,0.694-5.137,0.22l0.152-0.488
												c2.566,0.531,4.312,0.348,5.185-0.526c1.449-1.455,0.116-4.409,0.105-4.437l0.535-0.197
												c0.06,0.129,1.47,3.265-0.21,4.954C145.705,267.166,145.495,267.331,145.258,267.462z"/>
										</g>
									</g>
								</g>
							</g>
						</g>
					</g>
				</g>
			</g>
		</g>
	</g>
	<g>
		<g>
			<path style="fill:#20997C;" d="M309.788,262.755c0,0,22.465-108.759,64.499-109.028c42.034-0.268,12.119,72.093-48.299,114.033
				L309.788,262.755z"/>
			<g>
				<g>
					<g>
						<g>
							<g>
								<g>
									<g>
										<g>
											<path style="fill:#178369;" d="M309.639,269.876c23.895-16.016,60.032-91.78,60.512-92.73l-0.74-0.265
												c-0.478,0.955-36.523,76.538-60.242,92.438L309.639,269.876z"/>
										</g>
									</g>
								</g>
							</g>
						</g>
					</g>
					<g>
						<g>
							<g>
								<g>
									<g>
										<g>
											<path style="fill:#178369;" d="M348.048,219.799c2.494,0.342,5.704-0.753,9.576-3.271l-0.463-0.565
												c-4.418,2.868-7.855,3.806-10.21,2.783c-3.889-1.694-3.663-8.223-3.664-8.286l-0.811,0.007
												c-0.009,0.288-0.233,7.042,4.089,8.921C347.025,219.591,347.518,219.726,348.048,219.799z"/>
										</g>
									</g>
								</g>
							</g>
						</g>
					</g>
					<g>
						<g>
							<g>
								<g>
									<g>
										<g>
											<path style="fill:#178369;" d="M360.027,197.922c2.494,0.342,5.703-0.75,9.579-3.266l-0.464-0.57
												c-4.423,2.881-7.86,3.814-10.208,2.787c-3.89-1.69-3.671-8.223-3.668-8.29l-0.809,0.01
												c-0.015,0.292-0.239,7.046,4.086,8.927C359.006,197.718,359.501,197.85,360.027,197.922z"/>
										</g>
									</g>
								</g>
							</g>
						</g>
					</g>
					<g>
						<g>
							<g>
								<g>
									<g>
										<g>
											<path style="fill:#178369;" d="M367.258,185.295c2.494,0.342,5.706-0.762,9.577-3.275l-0.459-0.57
												c-4.419,2.877-7.861,3.809-10.211,2.787c-3.889-1.695-3.668-8.227-3.663-8.29l-0.811,0.015
												c-0.013,0.282-0.238,7.032,4.086,8.917C366.239,185.083,366.729,185.222,367.258,185.295z"/>
										</g>
									</g>
								</g>
							</g>
						</g>
					</g>
					<g>
						<g>
							<g>
								<g>
									<g>
										<g>
											<path style="fill:#178369;" d="M353.393,209.868c2.084,0.286,4.762-0.63,7.989-2.722l-0.465-0.565
												c-3.635,2.36-6.467,3.142-8.389,2.296c-3.176-1.381-3.004-6.758-3.001-6.812l-0.807,0.011
												c-0.013,0.238-0.201,5.872,3.42,7.444C352.529,209.695,352.949,209.807,353.393,209.868z"/>
										</g>
									</g>
								</g>
							</g>
						</g>
					</g>
					<g>
						<g>
							<g>
								<g>
									<g>
										<g>
											<path style="fill:#178369;" d="M341.823,230.604c2.494,0.342,5.705-0.758,9.575-3.272l-0.46-0.573
												c-4.416,2.882-7.852,3.811-10.206,2.788c-3.888-1.689-3.672-8.224-3.666-8.29l-0.813,0.014
												c-0.015,0.288-0.237,7.037,4.084,8.921C340.801,230.396,341.298,230.532,341.823,230.604z"/>
										</g>
									</g>
								</g>
							</g>
						</g>
					</g>
					<g>
						<g>
							<g>
								<g>
									<g>
										<g>
											<path style="fill:#178369;" d="M335.612,243.48c2.492,0.341,5.707-0.753,9.58-3.267l-0.461-0.569
												c-4.422,2.871-7.864,3.808-10.21,2.782c-3.891-1.69-3.667-8.218-3.666-8.285l-0.81,0.01
												c-0.014,0.278-0.238,7.037,4.086,8.917C334.592,243.271,335.087,243.407,335.612,243.48z"/>
										</g>
									</g>
								</g>
							</g>
						</g>
					</g>
					<g>
						<g>
							<g>
								<g>
									<g>
										<g>
											<path style="fill:#178369;" d="M329.016,252.575c1.803,0.247,4.116-0.542,6.896-2.352l-0.465-0.566
												c-3.096,2.02-5.499,2.675-7.125,1.973c-2.7-1.175-2.543-5.756-2.543-5.801l-0.813,0.016
												c-0.009,0.202-0.169,5.063,2.963,6.427C328.267,252.414,328.632,252.523,329.016,252.575z"/>
										</g>
									</g>
								</g>
							</g>
						</g>
					</g>
				</g>
			</g>
		</g>
		<g>
			<g>
				<g>
					<path style="fill:#59B45A;" d="M322.263,271.651c10.258-46.523,47.952-62.064,48.33-62.218l0.736,1.743
						c-0.37,0.149-37.139,15.351-47.174,60.871L322.263,271.651z"/>
				</g>
				<g>
					<path style="fill:#59B45A;" d="M367.212,212.113c-0.369-0.068,5.476-9.001,9.506-6.999
						C380.747,207.117,373.869,213.333,367.212,212.113z"/>
				</g>
				<g>
					<path style="fill:#59B45A;" d="M360.571,215.852c-0.329,0.176-1.63-10.342,2.79-11.284
						C367.78,203.626,366.512,212.682,360.571,215.852z"/>
				</g>
				<g>
					<path style="fill:#59B45A;" d="M351.856,222.413c-0.279,0.245-4.034-9.697,0.044-11.606
						C355.977,208.899,356.886,217.995,351.856,222.413z"/>
				</g>
				<g>
					<path style="fill:#59B45A;" d="M343.953,229.723c-0.278,0.245-4.033-9.697,0.045-11.606
						C348.075,216.208,348.983,225.304,343.953,229.723z"/>
				</g>
				<g>
					<path style="fill:#59B45A;" d="M337.732,238.012c-0.216,0.299-6.134-8.589-2.59-11.329
						C338.685,223.944,341.636,232.619,337.732,238.012z"/>
				</g>
				<g>
					<path style="fill:#59B45A;" d="M331.776,247.051c-0.217,0.299-6.134-8.59-2.59-11.329
						C332.73,232.983,335.68,241.659,331.776,247.051z"/>
				</g>
				<g>
					<path style="fill:#59B45A;" d="M328.166,255.248c-0.142,0.338-7.958-7.029-5.136-10.473
						C325.852,241.331,330.727,249.14,328.166,255.248z"/>
				</g>
				<g>
					<path style="fill:#59B45A;" d="M358.95,216.748c-0.279,0.245,9.489,4.905,11.857,1.151
						C373.176,214.145,363.98,212.329,358.95,216.748z"/>
				</g>
				<g>
					<path style="fill:#59B45A;" d="M349.863,224.662c-0.293,0.228,9.167,5.455,11.764,1.846
						C364.224,222.901,355.158,220.547,349.863,224.662z"/>
				</g>
				<g>
					<path style="fill:#59B45A;" d="M342.657,231.614c-0.278,0.245,9.489,4.906,11.857,1.152
						C356.883,229.011,347.686,227.195,342.657,231.614z"/>
				</g>
				<g>
					<path style="fill:#59B45A;" d="M335.396,241.255c-0.245,0.277,10.052,3.688,11.911-0.329
						C349.165,236.908,339.807,236.248,335.396,241.255z"/>
				</g>
				<g>
					<path style="fill:#59B45A;" d="M330.366,250.207c-0.224,0.294,10.295,2.988,11.858-1.148
						C343.787,244.924,334.404,244.908,330.366,250.207z"/>
				</g>
			</g>
		</g>
		<g>
			<path style="fill:#178369;" d="M327.97,262.168c0,0,33.338-49.651,54.263-41.65c20.924,8-8.688,38.138-47.241,47.27
				L327.97,262.168z"/>
			<g>
				<g>
					<g>
						<g>
							<g>
								<g>
									<g>
										<g>
											<path style="fill:#116851;" d="M319.492,269.777c17.658-3.884,55.552-39.287,56.056-39.729l-0.365-0.32
												c-0.505,0.445-38.302,35.763-55.83,39.62L319.492,269.777z"/>
										</g>
									</g>
								</g>
							</g>
						</g>
					</g>
					<g>
						<g>
							<g>
								<g>
									<g>
										<g>
											<path style="fill:#116851;" d="M352.587,249.77c1.364,0.762,3.485,0.851,6.327,0.267l-0.134-0.432
												c-3.242,0.663-5.457,0.431-6.578-0.693c-1.85-1.86-0.165-5.591-0.15-5.628l-0.472-0.179
												c-0.074,0.165-1.811,4.028,0.246,6.093C352.044,249.419,352.297,249.608,352.587,249.77z"/>
										</g>
									</g>
								</g>
							</g>
						</g>
					</g>
					<g>
						<g>
							<g>
								<g>
									<g>
										<g>
											<path style="fill:#116851;" d="M364.736,239.799c1.364,0.762,3.483,0.854,6.328,0.271l-0.133-0.435
												c-3.249,0.67-5.461,0.434-6.578-0.691c-1.852-1.858-0.17-5.594-0.152-5.632l-0.471-0.177
												c-0.078,0.166-1.816,4.029,0.242,6.095C364.193,239.451,364.448,239.639,364.736,239.799z"/>
										</g>
									</g>
								</g>
							</g>
						</g>
					</g>
					<g>
						<g>
							<g>
								<g>
									<g>
										<g>
											<path style="fill:#116851;" d="M371.932,234.116c1.364,0.762,3.488,0.848,6.329,0.266l-0.13-0.434
												c-3.246,0.669-5.461,0.432-6.58-0.691c-1.851-1.86-0.167-5.596-0.149-5.63l-0.473-0.174
												c-0.075,0.16-1.812,4.02,0.245,6.089C371.392,233.763,371.642,233.954,371.932,234.116z"/>
										</g>
									</g>
								</g>
							</g>
						</g>
					</g>
					<g>
						<g>
							<g>
								<g>
									<g>
										<g>
											<path style="fill:#116851;" d="M358.049,245.223c1.14,0.637,2.91,0.711,5.277,0.227l-0.135-0.432
												c-2.668,0.547-4.495,0.36-5.407-0.564c-1.511-1.517-0.132-4.594-0.117-4.625l-0.47-0.176
												c-0.065,0.135-1.514,3.357,0.209,5.086C357.589,244.928,357.806,245.088,358.049,245.223z"/>
										</g>
									</g>
								</g>
							</g>
						</g>
					</g>
					<g>
						<g>
							<g>
								<g>
									<g>
										<g>
											<path style="fill:#116851;" d="M346.408,254.625c1.364,0.761,3.487,0.849,6.328,0.267l-0.131-0.436
												c-3.244,0.672-5.456,0.435-6.577-0.69c-1.851-1.857-0.169-5.595-0.15-5.632l-0.475-0.175
												c-0.077,0.163-1.812,4.023,0.243,6.091C345.866,254.273,346.121,254.465,346.408,254.625z"/>
										</g>
									</g>
								</g>
							</g>
						</g>
					</g>
					<g>
						<g>
							<g>
								<g>
									<g>
										<g>
											<path style="fill:#116851;" d="M339.745,260.683c1.363,0.761,3.486,0.853,6.328,0.271l-0.131-0.434
												c-3.246,0.666-5.464,0.431-6.579-0.694c-1.852-1.858-0.169-5.59-0.152-5.628l-0.472-0.176
												c-0.074,0.157-1.813,4.023,0.246,6.089C339.203,260.332,339.458,260.523,339.745,260.683z"/>
										</g>
									</g>
								</g>
							</g>
						</g>
					</g>
					<g>
						<g>
							<g>
								<g>
									<g>
										<g>
											<path style="fill:#116851;" d="M333.757,264.463c0.986,0.551,2.514,0.616,4.555,0.195l-0.135-0.433
												c-2.274,0.471-3.823,0.308-4.597-0.466c-1.285-1.29-0.103-3.909-0.093-3.934l-0.475-0.175
												c-0.054,0.115-1.303,2.895,0.186,4.393C333.361,264.201,333.548,264.347,333.757,264.463z"/>
										</g>
									</g>
								</g>
							</g>
						</g>
					</g>
				</g>
			</g>
		</g>
	</g>
	<g>
		<path style="fill:#CDE1E8;" d="M209.305,91.039l0.227-10.101l-12.066-3.006c-0.901-0.224-1.6-0.899-1.929-1.767
			c-0.184-0.485-0.382-0.963-0.592-1.435c-0.381-0.855-0.327-1.84,0.197-2.614l6.895-10.189l-6.918-7.363l-10.591,6.242
			c-0.932,0.549-2.063,0.554-3.043,0.097c-0.653-0.304-1.319-0.583-1.999-0.836c-1.04-0.387-1.842-1.229-2.086-2.311l-2.714-12.041
			h-10.103l-2.718,12.063c-0.255,1.13-1.027,2.094-2.104,2.521c-0.449,0.178-0.892,0.367-1.328,0.567
			c-1.042,0.478-2.258,0.375-3.246-0.207l-10.34-6.094l-6.918,7.363l6.362,9.401c0.779,1.152,0.927,2.617,0.386,3.898
			c-0.048,0.114-0.095,0.228-0.142,0.342c-0.518,1.277-1.644,2.204-2.995,2.477l-11.006,2.221l-0.227,10.101l11.758,2.929
			c1.094,0.273,1.939,1.09,2.355,2.139c0.007,0.017,0.013,0.034,0.02,0.051c0.427,1.07,0.347,2.274-0.299,3.228l-6.503,9.609
			l6.918,7.363l9.762-5.753c0.944-0.556,2.095-0.538,3.068-0.034c0.573,0.296,1.157,0.573,1.752,0.829
			c0.933,0.401,1.643,1.189,1.866,2.179l2.543,11.285h10.103l2.314-10.268c0.243-1.077,1.068-1.896,2.121-2.226
			c0.914-0.286,1.807-0.618,2.677-0.994c0.902-0.391,1.925-0.367,2.772,0.132l10.021,5.906l6.918-7.363l-5.818-8.598
			c-0.647-0.956-0.679-2.173-0.169-3.209c0.349-0.71,0.669-1.436,0.956-2.178c0.396-1.025,1.241-1.807,2.318-2.025L209.305,91.039z
			 M173.478,103.488c-12.803,2.427-23.819-8.589-21.392-21.392c1.356-7.153,7.124-12.922,14.278-14.278
			c12.803-2.427,23.819,8.59,21.393,21.393C186.4,96.363,180.631,102.132,173.478,103.488z"/>
	</g>
	<ellipse style="fill:#CDE1E8;" cx="243.079" cy="273.379" rx="196.492" ry="10.907"/>
	<g>
		<g>
			<path style="fill:#142480;" d="M336.204,257.337c0,6.649-5.44,12.031-12.142,12.031H190.535c-6.702,0-12.138-5.381-12.138-12.031
				V73.818c0-6.646,5.436-12.027,12.138-12.027h133.526c6.702,0,12.142,5.381,12.142,12.027V257.337z"/>
		</g>
		<g>
			<path style="fill:#355DDC;" d="M342.578,257.337c0,6.649-5.44,12.031-12.142,12.031H196.91c-6.702,0-12.138-5.381-12.138-12.031
				V73.818c0-6.646,5.436-12.027,12.138-12.027h133.527c6.702,0,12.142,5.381,12.142,12.027V257.337z"/>
		</g>
		<g>
			<path style="fill:#D4E6ED;" d="M328.772,230.665c0,6.458-5.232,11.697-11.684,11.697H216.39c-6.449,0-11.678-5.238-11.678-11.697
				V92.022c0-6.459,5.229-11.697,11.678-11.697h100.697c6.452,0,11.684,5.238,11.684,11.697V230.665z"/>
		</g>
		<g>
			<path style="fill:#E7F4FA;" d="M322.638,230.665c0,6.458-5.232,11.697-11.684,11.697H210.256
				c-6.449,0-11.678-5.238-11.678-11.697V92.022c0-6.459,5.229-11.697,11.678-11.697h100.698c6.452,0,11.684,5.238,11.684,11.697
				V230.665z"/>
		</g>
		<g>
			<path style="fill:#142480;" d="M290.949,71.263c0,0.886-0.723,1.602-1.613,1.602H231.88c-0.893,0-1.613-0.716-1.613-1.602l0,0
				c0-0.883,0.72-1.596,1.613-1.596h57.456C290.226,69.667,290.949,70.38,290.949,71.263L290.949,71.263z"/>
		</g>
		<g>
			<path style="fill:#142480;" d="M272.124,258.824h-13.843c-0.605,0-1.099-0.495-1.099-1.099v-5.206
				c0-0.605,0.495-1.099,1.099-1.099h13.843c0.605,0,1.099,0.495,1.099,1.099v5.206C273.223,258.33,272.729,258.824,272.124,258.824
				z"/>
		</g>
	</g>
	<g>
		<rect x="142.878" y="252.193" style="fill:#4F7EE2;" width="85.772" height="22.042"/>
		<rect x="159.649" y="230.151" style="fill:#4B4A74;" width="85.772" height="22.042"/>
		<rect x="178.816" y="208.109" style="fill:#4F7EE2;" width="85.772" height="22.042"/>
		<polygon style="fill:#80BAFA;" points="247.816,208.109 226.254,208.109 226.254,230.151 207.087,230.151 207.087,252.193 
			190.316,252.193 190.316,274.235 260.275,274.235 276.088,274.235 292.859,274.235 292.859,252.193 292.859,230.151 
			292.859,208.109 		"/>
		<path style="fill:#70ABFF;" d="M280.005,208.109c0.972,3.384,1.497,6.892,1.497,10.494c0,27.39-29.605,49.594-66.126,49.594
			c-8.872,0-17.33-1.32-25.061-3.697v9.734h69.959h15.813h16.771v-16.531v-16.531v-16.531v-16.531H280.005z"/>
	</g>
	<g>
		<g>
			<path style="fill:#FBB99D;" d="M119.578,195.301c0.529-1.701,0.308-3.828-1.498-4.623c-1.024-0.451-2.282,0.582-3.251,1.621
				c-2.327,2.494-7.566,14.219-4.648,17.153C112.934,212.222,117.908,200.678,119.578,195.301z"/>
		</g>
		<g>
			<g>
				<g>
					<g>
						<g>
							<g>
								<g>
									<path style="fill:#FBB99D;" d="M118.694,211.342c0,0,5.393,2.643,5.825,2.987c2.766,2.204,4.547,2.733,3.941,3.092
										c-1.116,0.66-4.856-1.08-5.42-1.331c-0.69-0.309-2.373-1.232-2.92-1.627C119.572,214.067,118.694,211.342,118.694,211.342z
										"/>
								</g>
							</g>
						</g>
					</g>
				</g>
			</g>
			<g>
				<g>
					<g>
						<g>
							<g>
								<g>
									<path style="fill:#FBB99D;" d="M110.409,209.672c2.603,2.502,12.631,6.439,12.631,6.439v-2.938l-9.969-7.952
										C113.072,205.221,107.809,207.169,110.409,209.672z"/>
								</g>
							</g>
						</g>
					</g>
				</g>
			</g>
		</g>
		<g>
			<g>
				<g>
					<path style="fill:#E8A32B;" d="M141.161,268.582c0,0-0.89,4.493-0.561,5.224c0.982,2.18,8.998,3.368,11.85,2.211
						c0.398-0.161,0.857-0.813,0.136-1.763c-0.72-0.95-5.122-2.533-4.626-4.381C148.456,268.024,141.161,268.582,141.161,268.582z"
						/>
				</g>
			</g>
			<g>
				<g>
					<path style="fill:#6C4967;" d="M136.295,209.569l-12.136,5.278c1.174,5.111,4.584,12.942,6.826,17.798l-0.036,0.004
						l4.468,9.261c0.463,0.96,0.762,2,0.884,3.072l2.62,23.116c0.123,1.085,0.723,2.053,1.636,2.551
						c1.584,0.865,4.325,1.877,7.548,1.006c4.753-1.284,2.521-29.554,1.553-33.043c-1.717-6.191-6.319-16.534-6.406-16.803
						L136.295,209.569z"/>
				</g>
			</g>
			<g>
				<g>
					<path style="fill:#CA8623;" d="M107.071,266.389c0,0-2.909,3.514-2.835,4.332c0.073,0.819,9.082,8.193,9.082,8.193
						s1.097-0.27,0.912-1.49c-0.184-1.221-3.214-4.938-1.958-6.315C113.528,269.732,107.071,266.389,107.071,266.389z"/>
				</g>
			</g>
			<g>
				<g>
					<path style="fill:#E8A32B;" d="M104.81,270.069c1.988-0.185,9.98,7.784,8.914,8.645c-1.576,1.272-7.203-2.955-8.727-5.457
						C103.299,270.468,104.81,270.069,104.81,270.069z"/>
				</g>
			</g>
			<g>
				<g>
					<path style="fill:#6C4967;" d="M130.343,213.018l-12.069-2.887c-1.331,5.08-3.398,14.127-3.682,19.538l-0.033-0.015
						l-0.376,10.422c-0.039,1.08-0.257,2.145-0.645,3.146l-8.359,21.572c-0.392,1.013-0.316,2.171,0.249,3.082
						c0.98,1.58,2.898,3.892,6.103,4.808c4.726,1.351,15.795-24.525,16.559-28.079c1.355-6.306,2.112-17.744,2.16-18.024
						L130.343,213.018z"/>
				</g>
			</g>
			<g>
				<g>
					<g>
						<g>
							<path style="fill:#5B3C58;" d="M136.315,214.986c0.743,2.219,2.843,7.721,6.04,6.556c0.429-0.156,0.269-0.857-0.166-0.699
								c-2.653,0.967-4.549-4.153-5.175-6.023C136.868,214.386,136.168,214.547,136.315,214.986L136.315,214.986z"/>
						</g>
					</g>
				</g>
			</g>
			<g>
				<g>
					<g>
						<path style="fill:#5B3C58;" d="M128.116,223.508c-0.099,2.399,0.515,4.846,1.456,7.031c0.211,0.49,0.941,0.096,0.731-0.393
							c-0.882-2.047-1.451-4.362-1.358-6.609C128.967,223.004,128.138,222.974,128.116,223.508L128.116,223.508z"/>
					</g>
				</g>
			</g>
		</g>
		<g>
			<g>
				<g>
					<g>
						<g>
							<g>
								<g>
									<path style="fill:#FBB99D;" d="M131.136,174.517c0.895,2.132,1.908,9.203-2.541,9.482c-1.897,0.12-4.783-3.448-5.288-6.877
										c-0.216-1.411,1.044-3.5,3.367-4.577C127.72,172.055,130.121,172.036,131.136,174.517z"/>
								</g>
							</g>
						</g>
					</g>
				</g>
			</g>
		</g>
		<g>
			<path style="fill:#FBB99D;" d="M130.965,180.512c0,0-2.549,3.032,0,5.527c2.548,2.494-6.679,1.288-6.679,1.288l1.057-8.989
				L130.965,180.512z"/>
		</g>
		<g>
			<path style="fill:#FEC44F;" d="M111.595,196.125c0,0,3.298-10.543,8.02-9.124c4.723,1.418-0.55,12.416-0.55,12.416
				S113.636,198.772,111.595,196.125z"/>
		</g>
		<g>
			<path style="fill:#FEB801;" d="M132.293,185.813c-5.085-1.221-9.859-0.453-13.28,0.925c-6.397,2.576-0.528,12.854,0.09,14.503
				c3.219,8.587-1.983,8.07-0.962,10.008c1.834,3.48,10.733,3.909,16.33,1.958c2.188-0.762,3.947-2.175,3.405-3.146
				c-3.857-6.902-0.781-10.333-0.97-14.89C136.712,190.503,136.488,186.821,132.293,185.813z"/>
		</g>
		<g>
			<path style="fill:#FBB99D;" d="M137.844,191.299c-1.146-1.364-3.055-2.327-4.699-1.237c-0.933,0.619-0.743,2.235-0.393,3.612
				c0.842,3.306,7.039,13.337,11.735,13.274C148.393,206.897,141.466,195.609,137.844,191.299z"/>
		</g>
		<g>
			<path style="fill:#FEB801;" d="M134.225,198.462c0,0-7.09-8.471-3.345-11.679c3.745-3.207,10.151,7.171,10.151,7.171
				S137.555,198.174,134.225,198.462z"/>
		</g>
		<g>
			<path style="fill:#53424D;" d="M126.815,169.921c3.384,0.271,4.452,2.841,3.008,5.746c-2.294,4.613,3.857,2.918,0.623,7.926
				c-2.564,3.971-0.349,3.15,0.545,7.972c1.026,5.53-10.115,10.404-17.623,3.788c-3.681-3.244-7.691-7.735-0.139-15.002
				c2.336-2.248,4.41-2.014,6.105-6.162C120.341,171.725,121.835,169.522,126.815,169.921z"/>
		</g>
		<g>
			<path style="fill:#FBB99D;" d="M152.9,199.553c0,0,3.186-3.666,4.034-3.186c0.847,0.48-1.826,2.53-1.826,2.53L152.9,199.553z"/>
		</g>
		<g>
			<g>
				<g>
					<g>
						<g>
							<g>
								<g>
									<path style="fill:#FBB99D;" d="M150.865,200.709c0,0,5.138-3.111,5.66-3.288c3.349-1.137,4.033-1.693,4.008-0.99
										c-0.047,1.295-2.792,3.157-3.307,3.497c-0.633,0.414-2.337,1.02-2.965,1.266
										C153.632,201.443,150.865,200.709,150.865,200.709z"/>
								</g>
							</g>
						</g>
					</g>
				</g>
			</g>
			<g>
				<g>
					<g>
						<g>
							<g>
								<g>
									<path style="fill:#FBB99D;" d="M145.305,206.853c4.23-1.068,11.921-7.224,11.921-7.224l-2.222-0.91l-11.871,3.513
										C143.133,202.232,141.805,207.737,145.305,206.853z"/>
								</g>
							</g>
						</g>
					</g>
				</g>
			</g>
		</g>
	</g>
	<g>
		<g>
			<g>
				<g>
					<g>
						<g>
							<g>
								<g>
									<path style="fill:#D4E6ED;" d="M211.288,183.469c0,3.283,2.652,5.944,5.933,5.944h130.443c3.286,0,5.943-2.662,5.943-5.944
										v-81.8c0-3.282-2.657-5.943-5.943-5.943H217.221c-3.282,0-5.933,2.661-5.933,5.943V183.469z"/>
								</g>
							</g>
						</g>
						<g>
							<g>
								<g>
									<path style="fill:#BFD7F5;" d="M217.221,95.727h130.443c3.286,0,5.943,2.661,5.943,5.943v11.033H211.288V101.67
										C211.288,98.388,213.94,95.727,217.221,95.727z"/>
								</g>
							</g>
						</g>
						<g>
							<g>
								<g>
									<path style="fill:#FFFFFF;" d="M339.202,104.272c0,1.621,1.319,2.944,2.953,2.944c1.629,0,2.949-1.323,2.949-2.944
										c0-1.638-1.32-2.953-2.949-2.953C340.521,101.319,339.202,102.633,339.202,104.272z"/>
								</g>
							</g>
						</g>
						<g>
							<g>
								<g>
									<path style="fill:#FFFFFF;" d="M331.746,104.272c0,1.621,1.324,2.944,2.959,2.944c1.625,0,2.949-1.323,2.949-2.944
										c0-1.638-1.324-2.953-2.949-2.953C333.071,101.319,331.746,102.633,331.746,104.272z"/>
								</g>
							</g>
						</g>
						<g>
							<g>
								<g>
									<path style="fill:#FFFFFF;" d="M324.558,104.272c0,1.621,1.319,2.944,2.953,2.944c1.625,0,2.945-1.323,2.945-2.944
										c0-1.638-1.32-2.953-2.945-2.953C325.876,101.319,324.558,102.633,324.558,104.272z"/>
								</g>
							</g>
						</g>
					</g>
				</g>
				<g>
					<g>
						<g>
							<g>
								<g>
									<path style="fill:#FFFFFF;" d="M217.035,183.469c0,3.283,2.652,5.944,5.933,5.944h130.443c3.286,0,5.943-2.662,5.943-5.944
										v-81.8c0-3.282-2.657-5.943-5.943-5.943H222.968c-3.281,0-5.933,2.661-5.933,5.943V183.469z"/>
								</g>
							</g>
						</g>
						<g>
							<g>
								<g>
									<path style="fill:#C9E1F9;" d="M222.968,95.727h130.443c3.286,0,5.943,2.661,5.943,5.943v11.033H217.035V101.67
										C217.035,98.388,219.686,95.727,222.968,95.727z"/>
								</g>
							</g>
						</g>
						<g>
							<g>
								<g>
									<path style="fill:#FFFFFF;" d="M344.948,104.272c0,1.621,1.319,2.944,2.953,2.944c1.629,0,2.949-1.323,2.949-2.944
										c0-1.638-1.32-2.953-2.949-2.953C346.267,101.319,344.948,102.633,344.948,104.272z"/>
								</g>
							</g>
						</g>
						<g>
							<g>
								<g>
									<path style="fill:#FFFFFF;" d="M337.493,104.272c0,1.621,1.324,2.944,2.959,2.944c1.625,0,2.949-1.323,2.949-2.944
										c0-1.638-1.324-2.953-2.949-2.953C338.817,101.319,337.493,102.633,337.493,104.272z"/>
								</g>
							</g>
						</g>
						<g>
							<g>
								<g>
									<path style="fill:#FFFFFF;" d="M330.304,104.272c0,1.621,1.319,2.944,2.953,2.944c1.625,0,2.945-1.323,2.945-2.944
										c0-1.638-1.32-2.953-2.945-2.953C331.623,101.319,330.304,102.633,330.304,104.272z"/>
								</g>
							</g>
						</g>
					</g>
				</g>
			</g>
		</g>
		<g>
			<g>
				<rect x="233.506" y="122.351" style="fill:#CDE1E8;" width="111.442" height="4.649"/>
			</g>
		</g>
		<g>
			<g>
				<rect x="233.506" y="131.035" style="fill:#CDE1E8;" width="111.442" height="4.649"/>
			</g>
		</g>
		<g>
			<g>
				<rect x="233.506" y="151.299" style="fill:#CDE1E8;" width="111.442" height="4.649"/>
			</g>
		</g>
		<g>
			<g>
				<rect x="233.506" y="159.984" style="fill:#CDE1E8;" width="111.442" height="4.649"/>
			</g>
		</g>
	</g>
	<g>
		<g>
			<g>
				<path style="fill:#E8A32B;" d="M190.737,223.401c0,0,1.546,3.826,1.391,4.528c-0.462,2.092-7.126,4.479-9.772,3.932
					c-0.37-0.076-0.877-0.576-0.424-1.537c0.453-0.96,3.95-3.094,3.203-4.647C184.387,224.124,190.737,223.401,190.737,223.401z"/>
			</g>
		</g>
		<g>
			<g>
				<g>
					<g>
						<path style="fill:#5B3C58;" d="M187.875,195.665c0,0,19.422-6.011,22.767-8.165c4.915-3.166,3.888-11.339-1.759-15.001
							c-3.883-2.518-35.779,14.068-35.493,21.855C173.65,201.416,187.875,195.665,187.875,195.665z"/>
					</g>
				</g>
			</g>
		</g>
		<g>
			<g>
				<g>
					<g>
						<path style="fill:#5B3C58;" d="M182.113,225.93c-3.11-6.443-10.109-27.36-8.469-32.675c1.773-5.745,9.211-2.501,11.511,5.072
							c1.491,4.908,6.316,21.598,7.309,26.215c0.24,1.12-2.52,2.457-4.283,2.814C188.139,227.366,183.012,227.792,182.113,225.93z"
							/>
					</g>
				</g>
			</g>
		</g>
		<g>
			<path style="fill:#6C4967;" d="M186.445,227.296c-0.114-0.265-11.434-26.659-9.901-32.963
				c1.956-7.98,22.727-17.232,22.937-17.325l-0.194-0.437c-0.866,0.382-21.229,9.464-23.206,17.649
				c-1.57,6.457,9.456,32.173,9.926,33.266L186.445,227.296z"/>
		</g>
		<g>
			<g>
				<g>
					<g>
						<path style="fill:#6C4967;" d="M228.372,190.909c0,0-6.447-14.765-8.495-18.587c-6.251-11.668-17.297-6.853-20.851-0.175
							c-2.443,4.591,20.548,36.189,28.57,35.219C234.872,206.486,228.372,190.909,228.372,190.909z"/>
					</g>
				</g>
			</g>
		</g>
		<g>
			<g>
				<path style="fill:#E8A32B;" d="M248.989,181.243c0,0,2.642-2.862,3.304-3.013c1.972-0.449,6.696,4.276,7.297,6.755
					c0.084,0.346-0.138,0.981-1.141,0.982c-1.003,0.001-4.234-2.123-5.258-0.86C252.167,186.371,248.989,181.243,248.989,181.243z"
					/>
			</g>
		</g>
		<g>
			<g>
				<g>
					<g>
						<path style="fill:#6C4967;" d="M254.626,187.584c-4.245,5.253-21.831,19.039-27.029,19.782
							c-5.619,0.804-4.738-6.618,0.799-11.636c3.588-3.252,17.331-13.713,20.871-16.422c0.859-0.658,3.113,1.16,4.129,2.52
							C253.421,181.862,255.852,186.065,254.626,187.584z"/>
					</g>
				</g>
			</g>
		</g>
		<g>
			<g>
				<g>
					<g>
						<g>
							<path style="fill:#5B3C58;" d="M215.68,171.693c-0.467,1.709-1.82,5.957-4.287,5.213c-0.33-0.1-0.239-0.637,0.096-0.535
								c2.047,0.618,3.262-3.333,3.656-4.773C215.236,171.263,215.772,171.355,215.68,171.693L215.68,171.693z"/>
						</g>
					</g>
				</g>
			</g>
		</g>
		<g>
			<path style="fill:#5B3C58;" d="M252.714,181.095l-0.337-0.32c-0.189,0.201-19.124,20.059-26.122,20.843
				c-5.1,0.573-18.568-23.791-18.706-24.034l-0.405,0.222c0.557,1.016,13.758,24.877,19.163,24.273
				C233.472,201.275,251.932,181.918,252.714,181.095z"/>
		</g>
		<g>
			<g>
				<g>
					<g>
						<g>
							<path style="fill:#CC8C71;" d="M182.344,169.13c-0.35,0.675-1.871,8.862-4.279,9.682c-1.746,0.594-5.023-4.283-5.023-4.283
								s2.498-0.316,3.012-7.114C176.485,161.686,182.344,169.13,182.344,169.13z"/>
						</g>
					</g>
				</g>
			</g>
			<g>
				<g>
					<g>
						<g>
							<g>
								<g>
									<g>
										<g>
											<g>
												<g>
													<path style="fill:#CC8C71;" d="M177.387,179.023c-4.098,1.024-16.635-0.795-16.635-0.795l1.794-2.136l14.344-2.136
														C176.891,173.956,181.484,177.995,177.387,179.023z"/>
												</g>
											</g>
										</g>
									</g>
								</g>
							</g>
						</g>
					</g>
				</g>
			</g>
			<g>
				<g>
					<g>
						<path style="fill:#CC8C71;" d="M163.14,175.646c-0.22-0.199-0.335-0.548-0.495-0.791c-0.32-0.484-0.781-0.841-1.24-1.184
							c-0.255-0.191-0.568-0.894-0.964-0.784c-0.648,0.181,0.19,1.209,0.29,1.493c0.092,0.261,0.066,0.597-0.159,0.758
							c-0.149,0.106-0.346,0.111-0.528,0.102c-0.583-0.028-1.154-0.15-1.729-0.238c-0.299-0.045-0.597-0.07-0.898-0.097
							c-0.225-0.02-0.518-0.135-0.736-0.097c-0.173,0.03-0.333,0.213-0.258,0.395c0.068,0.163,0.239,0.136,0.382,0.175
							c0.323,0.088,0.643,0.185,0.962,0.285c0.07,0.022,0.403,0.076,0.433,0.153c0.144,0.37-0.751,0.236-0.893,0.222
							c-0.359-0.037-0.735-0.063-1.065,0.118c-0.043,0.024-0.088,0.057-0.096,0.105c-0.013,0.077,0.071,0.132,0.144,0.161
							c0.427,0.169,0.904,0.178,1.327,0.356c0.069,0.029,0.145,0.075,0.152,0.149c0.027,0.298-0.573,0.333-0.768,0.362
							c-0.123,0.018-0.275,0.052-0.305,0.173c-0.02,0.079,0.029,0.162,0.097,0.208c0.067,0.046,0.15,0.063,0.23,0.079
							c0.236,0.046,0.478,0.116,0.717,0.132c0.116,0.008,0.459,0.002,0.482,0.159c0.004,0.031-0.011,0.061-0.032,0.085
							c-0.073,0.087-0.194,0.111-0.302,0.146c-0.108,0.035-0.224,0.105-0.236,0.218c-0.014,0.14,0.137,0.236,0.27,0.28
							c0.478,0.161,1.015,0.15,1.514,0.163c0.534,0.014,1.069,0.004,1.602-0.031c1.002-0.065,1.996-0.344,2.999-0.317
							c0.151,0.004,0.304,0.014,0.451-0.02c0.279-0.064,0.501-0.279,0.663-0.515c0.303-0.444,0.434-1.042,0.268-1.562
							c-0.053-0.165-0.135-0.508-0.301-0.566c-0.121-0.042-0.356,0.033-0.483,0.045c-0.183,0.017-0.367,0.029-0.551,0.02
							C163.77,175.967,163.438,175.876,163.14,175.646z"/>
					</g>
				</g>
			</g>
			<g>
				<g>
					<g>
						<g>
							<path style="fill:#EF7BAB;" d="M180.348,155.643c1.226-2.678,3.379-4.758,5.731-3.825c1.334,0.529,2.48,3.175,2.34,5.057
								c-0.268,3.616-2.546,11.843-6.483,16.688c-1.442,1.775-7.253,0.76-6.696-3.117
								C175.973,165.355,178.622,159.414,180.348,155.643z"/>
						</g>
					</g>
				</g>
			</g>
		</g>
		<g>
			<g>
				<g>
					<g>
						<path style="fill:#FA8FB8;" d="M181.374,157.2c-2.015-5.091,6.272-9.748,11.857-13.014c3.765-2.202,6.899-2.196,11.683,4.07
							c1.881,2.463,11.857,17.382,11.71,18.268c-0.842,5.093-21.48,14.683-23.878,10.418
							C192.747,176.942,185.68,168.081,181.374,157.2z"/>
					</g>
				</g>
			</g>
		</g>
		<g>
			<g>
				<g>
					<g>
						<g>
							<path style="fill:#CC8C71;" d="M185.634,139.968c0,0-3.774,5.707-3.126,5.837c0.649,0.129,0.954,1.372,1.688,2.146
								c0.793,0.841,1.102,2.254,1.182,3.809c0.057,1.089,1.656,0.89,2.62,0.246c4.156-2.776,5.087-6.256,3.233-6.665
								C187.066,144.42,185.634,139.968,185.634,139.968z"/>
						</g>
					</g>
				</g>
			</g>
		</g>
		<g>
			<g>
				<g>
					<g>
						<g>
							<g>
								<g>
									<path style="fill:#BF7C64;" d="M184.196,147.95c-0.734-0.774-1.038-2.017-1.688-2.146c-0.648-0.13,3.425-6.286,3.425-6.286
										s0.002,1.567,1.046,2.901c-0.22,2.813-1.211,5.12-2.011,6.89C184.801,148.819,184.483,148.254,184.196,147.95z"/>
								</g>
							</g>
						</g>
					</g>
				</g>
			</g>
		</g>
		<g>
			<g>
				<g>
					<g>
						<g>
							<g>
								<g>
									<g>
										<g>
											<g>
												<path style="fill:#CC8B6E;" d="M175.43,139.167c-0.489,3.263,2.713,9.742,6.97,10.153
													c2.339,0.226,4.936-4.989,4.044-9.59c-0.116-0.598-1.563-3.253-4.766-4.558
													C180.231,134.577,175.938,135.776,175.43,139.167z"/>
											</g>
										</g>
									</g>
								</g>
							</g>
						</g>
					</g>
				</g>
			</g>
		</g>
		<g>
			<g>
				<g>
					<g>
						<g>
							<g>
								<g>
									<g>
										<path style="fill:#FEDCD6;" d="M177.042,145.159c0.298,0.299-2.484-3.383-0.863-5.405
											c0.659-0.822,1.262,0.131,2.193-0.655c0.795-0.671,1.556-4.336,5.023,0.914c0.166,0.252,0.611,0.305,0.896,0.4
											c0.351,0.115,0.499,1.022,0.763,1.28c0.255,0.249,0.255-1.28,0.488-1.011c0.354,0.407,0.739,2.132,1.437,1.737
											c0.831-0.471-0.481-3.487-2.203-5.822c-0.443-0.601-2.013-3.09-2.415-3.566c-0.854-1.012-6.882,2.114-8.916,4.11
											c-1.201,1.178,0.747,2.499,1.348,3.919C175.384,142.453,175.905,144.017,177.042,145.159z"/>
									</g>
								</g>
							</g>
						</g>
					</g>
				</g>
			</g>
		</g>
		<g>
			<g>
				<g>
					<g>
						<g>
							<g>
								<g>
									<path style="fill:#CC8B6E;" d="M184.009,141.559c0,0,0.188-2.525,1.273-2.914c1.089-0.389,2.033,2.681,0.21,3.913
										C183.674,143.788,183.908,142.29,184.009,141.559z"/>
								</g>
							</g>
						</g>
					</g>
				</g>
			</g>
		</g>
		<g>
			<g>
				<g>
					<path style="fill:#1E100C;" d="M182.047,142.423c0.017-0.052-0.023,0.055-0.032,0.072c-0.039,0.076-0.079,0.15-0.136,0.216
						c-0.216,0.253-0.476,0.201-0.727,0.055c-0.158-0.092-0.288,0.172-0.131,0.263c0.558,0.325,1.105,0.048,1.31-0.557
						C182.391,142.292,182.107,142.247,182.047,142.423L182.047,142.423z"/>
				</g>
			</g>
		</g>
		<g>
			<g>
				<g>
					<path style="fill:#1E100C;" d="M179.082,143.774c-0.005,0.107-0.031,0.223-0.072,0.323c-0.134,0.326-0.404,0.309-0.689,0.184
						c-0.168-0.073-0.299,0.189-0.131,0.263c0.336,0.147,0.727,0.193,0.979-0.15c0.136-0.185,0.193-0.425,0.203-0.646
						C179.38,143.562,179.09,143.59,179.082,143.774L179.082,143.774z"/>
				</g>
			</g>
		</g>
		<g>
			<g>
				<path style="fill:#552B19;" d="M177.659,143.067c0.277-0.406,0.722-0.5,1.164-0.293c0.207,0.097,0.333-0.234,0.127-0.33
					c-0.584-0.273-1.208-0.128-1.579,0.416C177.244,143.048,177.531,143.256,177.659,143.067L177.659,143.067z"/>
			</g>
		</g>
		<g>
			<g>
				<path style="fill:#552B19;" d="M180.522,141.949c0.157-0.466,0.559-0.676,1.041-0.598c0.225,0.037,0.257-0.316,0.033-0.352
					c-0.636-0.104-1.197,0.204-1.407,0.828C180.117,142.043,180.45,142.166,180.522,141.949L180.522,141.949z"/>
			</g>
		</g>
		<g>
			<g>
				<path style="fill:#BF7C64;" d="M179.692,142.822c0.266,0.187,0.523,0.443,0.642,0.745c0.174,0.441-0.107,0.917-0.098,1.386
					c0.012,0.644,0.504,0.65,1.107,0.405c0.146-0.059,0.085-0.255-0.06-0.196c-1.351,0.551-0.507-1.026-0.699-1.62
					c-0.12-0.371-0.413-0.68-0.729-0.903C179.747,142.563,179.584,142.745,179.692,142.822L179.692,142.822z"/>
			</g>
		</g>
		<g>
			<path style="fill:#FAFFFF;" d="M183.365,146.389c0,0-0.05,1.216-1.051,1.106c-1.001-0.11-0.987-1.204-0.987-1.204
				L183.365,146.389z"/>
		</g>
		<g>
			<path style="fill:#C1775D;" d="M183.944,143.679c0.126,0.357-0.061,0.75-0.419,0.876c-0.358,0.126-0.75-0.062-0.876-0.419
				c-0.126-0.358,0.061-0.75,0.419-0.876C183.426,143.134,183.818,143.322,183.944,143.679z"/>
		</g>
		<g>
			<path style="fill:#C1775D;" d="M178.365,145.902c0.087-0.374,0.461-0.606,0.835-0.519c0.374,0.088,0.606,0.461,0.519,0.835
				c-0.088,0.374-0.461,0.606-0.835,0.519C178.51,146.65,178.278,146.275,178.365,145.902z"/>
		</g>
		<g>
			<g>
				<g>
					<g>
						<g>
							<path style="fill:#CC8C71;" d="M189.182,161.185c-0.656,0.467-6.05,7.451-8.717,7.059c-1.933-0.284-2.665-6.467-2.665-6.467
								s2.508,0.91,6.28-5.252C187.258,151.333,189.182,161.185,189.182,161.185z"/>
						</g>
					</g>
				</g>
			</g>
			<g>
				<g>
					<g>
						<g>
							<g>
								<g>
									<g>
										<g>
											<g>
												<g>
													<path style="fill:#CC8C71;" d="M179.724,168.115c-4.359-1.016-15.299-8.794-15.299-8.794l2.724-1.146l14.557,4.923
														C181.706,163.097,184.083,169.128,179.724,168.115z"/>
												</g>
											</g>
										</g>
									</g>
								</g>
							</g>
						</g>
					</g>
				</g>
			</g>
			<g>
				<g>
					<g>
						<path style="fill:#CC8C71;" d="M167.924,158.04c-0.111-0.294-0.05-0.679-0.084-0.986c-0.068-0.611-0.329-1.171-0.596-1.716
							c-0.149-0.303-0.104-1.118-0.531-1.205c-0.699-0.143-0.405,1.232-0.448,1.548c-0.04,0.291-0.226,0.595-0.517,0.637
							c-0.191,0.028-0.379-0.063-0.547-0.159c-0.536-0.308-1.015-0.699-1.515-1.06c-0.26-0.188-0.528-0.355-0.799-0.526
							c-0.202-0.128-0.422-0.378-0.647-0.448c-0.178-0.055-0.417,0.04-0.434,0.248c-0.015,0.186,0.159,0.243,0.275,0.35
							c0.261,0.239,0.517,0.485,0.769,0.733c0.056,0.055,0.343,0.267,0.335,0.354c-0.043,0.419-0.822-0.14-0.949-0.223
							c-0.32-0.208-0.662-0.414-1.061-0.404c-0.052,0.002-0.11,0.011-0.141,0.053c-0.049,0.066,0.003,0.159,0.057,0.221
							c0.32,0.365,0.766,0.604,1.078,0.977c0.051,0.061,0.101,0.141,0.071,0.214c-0.119,0.294-0.701,0.037-0.899-0.031
							c-0.125-0.043-0.285-0.084-0.372,0.016c-0.057,0.065-0.051,0.168-0.01,0.244c0.041,0.076,0.111,0.131,0.179,0.185
							c0.2,0.158,0.395,0.34,0.612,0.472c0.105,0.064,0.432,0.224,0.378,0.383c-0.011,0.031-0.04,0.052-0.071,0.065
							c-0.111,0.046-0.237,0.011-0.355-0.008c-0.119-0.019-0.262-0.009-0.328,0.092c-0.082,0.125,0.015,0.288,0.119,0.395
							c0.373,0.383,0.885,0.632,1.35,0.886c0.497,0.272,1.006,0.52,1.525,0.745c0.976,0.423,2.048,0.641,2.981,1.152
							c0.14,0.077,0.28,0.16,0.435,0.199c0.294,0.074,0.607-0.02,0.874-0.165c0.501-0.272,0.914-0.772,1.008-1.343
							c0.03-0.181,0.118-0.545-0.01-0.68c-0.093-0.098-0.352-0.141-0.477-0.192c-0.181-0.073-0.36-0.15-0.529-0.248
							C168.362,158.649,168.093,158.401,167.924,158.04z"/>
					</g>
				</g>
			</g>
			<g>
				<g>
					<g>
						<g>
							<path style="fill:#EF7BAB;" d="M193.823,147.503c2.451-1.932,5.487-2.852,7.254-0.835c1.002,1.144,0.803,4.193-0.239,5.9
								c-2.002,3.279-8.128,9.936-14.183,12.599c-2.218,0.976-7.206-2.791-4.805-6.177
								C185.001,154.544,190.371,150.224,193.823,147.503z"/>
						</g>
					</g>
				</g>
			</g>
		</g>
	</g>
</g>
</svg>
